<svg width="72" height="72" viewBox="0 0 72 72" fill="none" xmlns="http://www.w3.org/2000/svg">
<g clip-path="url(#clip0_1209_222)">
<path d="M11.3706 39.3635C11.8047 38.3227 11.313 37.1271 10.2722 36.6929C9.23143 36.2587 8.03575 36.7505 7.60157 37.7912C7.1674 38.832 7.65915 40.0277 8.69992 40.4619C9.7407 40.8961 10.9364 40.4043 11.3706 39.3635Z" fill="#006D92"/>
<path d="M51.2932 12.1634L44.4323 17.6357C43.2889 18.5342 42.6354 19.7593 42.4721 21.1478C42.3904 21.5562 42.3904 21.9646 42.4721 22.373L35.0395 22.5363L32.8342 23.2714L24.2581 20.9028C24.3398 20.0044 24.2581 19.1059 23.9314 18.2075C23.3596 16.9006 22.3795 15.8388 21.0727 15.3488L12.9867 12L0 43.0373L8.08603 46.3861C8.73945 46.6311 9.47454 46.7944 10.128 46.7944C10.7814 46.7944 11.5165 46.6311 12.1699 46.3861C12.905 46.0593 13.5584 45.5693 14.0485 44.9975L31.5274 58.3109C32.2625 58.8827 33.0792 59.1277 33.896 59.1277C34.0593 59.1277 34.2227 59.1277 34.4677 59.1277C35.5295 58.9643 36.428 58.4743 37.0814 57.5758C37.4081 57.1674 37.6531 56.6774 37.7348 56.1873L38.8783 57.0041C39.6134 57.5758 40.4302 57.8208 41.2469 57.8208C41.4103 57.8208 41.5736 57.8208 41.8187 57.8208C42.8805 57.6575 43.7789 57.1674 44.4323 56.269C44.759 55.8606 45.0041 55.3705 45.0858 54.7988C45.6575 55.1255 46.3109 55.2889 46.9643 55.2889C47.1277 55.2889 47.291 55.2889 47.5361 55.2889C48.5979 55.1255 49.4963 54.6354 50.1497 53.737C50.5581 53.1652 50.8848 52.5118 50.8848 51.7767C51.1299 51.7767 51.2932 51.8584 51.5382 51.8584C51.7016 51.8584 51.8649 51.8584 52.11 51.8584C53.1718 51.6951 54.0702 51.205 54.7236 50.3066C55.3771 49.4898 55.6221 48.428 55.4587 47.3662C55.4587 47.2028 55.3771 47.1211 55.3771 46.9578L58.3991 43.8541C59.3792 44.7525 60.6861 45.2426 61.9929 45.2426C63.1364 45.2426 64.2799 44.8342 65.26 44.0991L72.1209 38.6267L51.2932 12.1634ZM35.4479 25.0683L43.3705 24.8233C43.4522 24.905 43.4522 24.9867 43.5339 25.0683L56.8473 41.8938L54.0702 44.7525L53.9886 44.6708L42.5538 35.9314C44.269 35.1146 45.4941 33.4811 45.6575 31.5208C45.7392 30.8674 45.1674 30.2957 44.514 30.214C43.8606 30.1323 43.2889 30.7041 43.2072 31.3575C43.1255 32.0926 42.7988 32.8277 42.2271 33.3177C41.6553 33.8078 40.9202 34.0528 40.1035 33.9711C40.0218 33.9711 40.0218 33.9711 39.9401 33.9711L34.2227 29.6423L28.7503 30.7041C27.9336 30.8674 27.1168 30.459 26.7901 29.7239C26.5451 29.2339 26.6267 28.7438 26.7901 28.2537C27.0351 27.7637 27.3618 27.437 27.8519 27.2736L35.4479 25.0683ZM11.1898 44.1808C10.4547 44.5075 9.71957 44.5075 8.98448 44.1808L3.10373 41.7305L14.2935 15.1854L20.1742 17.6357C20.9093 17.9624 21.3994 18.4525 21.7261 19.1876C22.0528 19.9227 22.0528 20.6578 21.7261 21.3929L12.8233 42.6289C12.4966 43.364 11.9249 43.9357 11.1898 44.1808ZM52.8451 48.7547C52.355 49.4081 51.3749 49.5715 50.7215 49.0814L48.4345 47.3662C48.3528 47.2845 48.1895 47.2028 48.1078 47.2028L38.8783 40.2603C38.3066 39.8519 37.5715 39.9336 37.1631 40.5053C36.7547 41.077 36.8364 41.8121 37.4081 42.2205L47.8628 50.1432C48.1895 50.3882 48.4345 50.7149 48.4345 51.1233C48.5162 51.5317 48.3528 51.9401 48.1078 52.2668C47.8628 52.5935 47.5361 52.8385 47.1277 52.8385C46.7193 52.9202 46.3109 52.7569 45.9842 52.5118L44.269 51.1233C44.1873 51.0416 44.1056 51.0417 44.024 50.96C43.9423 50.8783 43.8606 50.7966 43.7789 50.7149L35.6929 44.5892C35.1211 44.1808 34.3861 44.2624 33.9777 44.8342C33.5693 45.4059 33.651 46.141 34.2227 46.5494L42.3087 52.6752C42.6354 52.9202 42.8805 53.2469 42.8805 53.6553C42.9621 54.0637 42.7988 54.4721 42.5538 54.7988C42.3087 55.1255 41.982 55.3705 41.5736 55.3705C41.1653 55.4522 40.7569 55.2889 40.4302 55.0438L37.1631 52.5935C37.0814 52.5118 36.918 52.4302 36.8364 52.4302C36.673 52.2668 36.5097 52.1034 36.3463 52.0218L33.8143 50.1432C33.2426 49.7348 32.5075 49.8165 32.0991 50.3882C31.6907 50.96 31.7724 51.6951 32.3441 52.1034L34.8761 53.982C35.2028 54.2271 35.4479 54.5538 35.4479 54.9621C35.5295 55.3705 35.3662 55.7789 35.1211 56.1056C34.8761 56.4323 34.5494 56.6774 34.141 56.6774C33.7326 56.759 33.3243 56.5957 32.9975 56.3507L15.2736 42.9556L23.523 23.2714L28.4236 24.5783L27.1985 24.9867C26.055 25.3134 25.0749 26.1301 24.5848 27.2736C24.0947 28.3354 24.0947 29.6423 24.5848 30.7041C25.4016 32.5009 27.2801 33.4811 29.2404 33.1544L33.7326 32.3376L52.6 46.7128C52.9267 46.9578 53.1718 47.2845 53.1718 47.6929C53.2535 48.1013 53.0901 48.428 52.8451 48.7547ZM63.7898 42.1388C63.2181 42.6289 62.483 42.7923 61.6662 42.7106C60.9311 42.6289 60.196 42.2205 59.7876 41.6488L45.4941 23.5981C45.0041 23.0264 44.8407 22.2913 44.9224 21.4745C45.0041 20.7394 45.4125 20.0044 45.9842 19.596L50.9665 15.6755L68.7721 38.1367L63.7898 42.1388Z" fill="#006D92"/>
<path d="M63.1105 38.4246C63.9939 37.7235 64.1416 36.4391 63.4405 35.5557C62.7394 34.6724 61.455 34.5246 60.5716 35.2257C59.6883 35.9268 59.5405 37.2113 60.2416 38.0947C60.9427 38.978 62.2272 39.1257 63.1105 38.4246Z" fill="#006D92"/>
</g>
<defs>
<clipPath id="clip0_1209_222">
<rect width="72" height="72" fill="white"/>
</clipPath>
</defs>
</svg>
