<svg width="82" height="82" viewBox="0 0 82 82" fill="none" xmlns="http://www.w3.org/2000/svg">
<path d="M77.834 29.6864L41.9067 12.2101C41.3258 11.926 40.6488 11.931 40.0729 12.2192L4.14563 30.1688C3.44327 30.5197 3 31.2368 3 32.0216C3 32.8064 3.44327 33.5234 4.14563 33.8744L11.9828 37.7904V49.7203L7.69079 66.8729C7.41349 67.9813 8.08751 69.106 9.1967 69.3831C10.7461 69.7735 12.3067 69.9717 13.843 69.9879C13.849 69.9879 13.8541 69.9919 13.8602 69.9919C13.9118 69.996 14.0029 70 14.0555 70L14.1364 69.996C14.1395 69.996 14.1425 69.996 14.1445 69.996C15.7152 69.9899 17.3203 69.7836 18.9143 69.3831C20.0235 69.106 20.6975 67.9813 20.4202 66.8729L16.1281 49.7203V39.8626L20.9657 42.2798V52.633C20.9657 59.8521 29.7653 65.5076 40.9999 65.5076C52.2335 65.5076 61.0342 59.8521 61.0342 52.633V42.0279L77.8745 33.391C78.5728 33.0329 79.008 32.3108 78.9999 31.526C78.9918 30.7422 78.5404 30.0292 77.834 29.6864ZM56.8889 52.633C56.8889 57.3661 49.6124 61.365 40.9999 61.365C32.3875 61.365 25.111 57.3661 25.111 52.633V44.352L40.0729 51.828C40.3644 51.9736 40.6822 52.0464 40.9999 52.0464C41.3248 52.0464 41.6497 51.9696 41.9462 51.8179L56.8889 44.1538V52.633V52.633ZM40.9878 47.6531L20.6823 37.5062L41.341 34.0665C42.4694 33.8784 43.2325 32.8115 43.0443 31.6828C42.856 30.5561 41.7934 29.7895 40.6589 29.9807L14.3793 34.3568L9.70677 32.0216L41.0121 16.382L72.2921 31.5978L40.9878 47.6531Z" fill="#006D92"/>
</svg>
