<svg width="57" height="57" viewBox="0 0 57 57" fill="none" xmlns="http://www.w3.org/2000/svg">
<path d="M44.0091 21.8969L40.4466 18.3344C39.751 17.6388 38.6235 17.6388 37.9279 18.3344C37.2324 19.03 37.2324 20.1575 37.9279 20.8531L38.4498 21.375H35.6248C32.7107 21.375 30.1252 22.7884 28.4998 24.9598C26.8744 22.7884 24.2898 21.375 21.3748 21.375H18.5497L19.0716 20.8531C19.7672 20.1575 19.7672 19.03 19.0716 18.3344C18.3769 17.6388 17.2476 17.6388 16.5529 18.3344L12.9904 21.8969C12.2949 22.5925 12.2949 23.72 12.9904 24.4156L16.5529 27.9781C16.9003 28.3263 17.3563 28.5 17.8123 28.5C18.2683 28.5 18.7243 28.3263 19.0716 27.9781C19.7672 27.2825 19.7672 26.155 19.0716 25.4594L18.5497 24.9375H21.3748C24.3219 24.9375 26.7185 27.3342 26.7185 30.2813V42.75C26.7185 43.7333 27.5165 44.5313 28.4998 44.5313C29.483 44.5313 30.281 43.7333 30.281 42.75V30.2813C30.281 27.3342 32.6777 24.9375 35.6248 24.9375H38.4498L37.9279 25.4594C37.2324 26.155 37.2324 27.2825 37.9279 27.9781C38.2762 28.3263 38.7313 28.5 39.1873 28.5C39.6433 28.5 40.0984 28.3263 40.4466 27.9781L44.0091 24.4156C44.7047 23.72 44.7047 22.5925 44.0091 21.8969Z" fill="#006D92"/>
<path d="M28.5 5.34375C15.732 5.34375 5.34375 15.732 5.34375 28.5C5.34375 41.2689 15.732 51.6562 28.5 51.6562C41.2689 51.6562 51.6562 41.2689 51.6562 28.5C51.6562 15.732 41.2689 5.34375 28.5 5.34375ZM28.5 48.0938C17.6958 48.0938 8.90625 39.3042 8.90625 28.5C8.90625 17.6958 17.6958 8.90625 28.5 8.90625C39.3042 8.90625 48.0938 17.6958 48.0938 28.5C48.0938 39.3042 39.3042 48.0938 28.5 48.0938Z" fill="#006D92"/>
</svg>
