<svg width="58" height="58" viewBox="0 0 58 58" fill="none" xmlns="http://www.w3.org/2000/svg">
<path d="M9.23918 50.2744L20.062 31.7144C20.8063 30.2747 21.2354 28.693 21.3206 27.0744V18.5078H20.1606C19.9057 18.5063 19.6617 18.4044 19.4815 18.2242C19.3012 18.0439 19.1993 17.7999 19.1978 17.545V16.5822C19.1978 16.3264 19.299 16.0809 19.4794 15.8994C19.6598 15.7179 19.9047 15.6152 20.1606 15.6136H37.52C37.7759 15.6152 38.0207 15.7179 38.2011 15.8994C38.3815 16.0809 38.4828 16.3264 38.4828 16.5822V17.545C38.4813 17.7999 38.3793 18.0439 38.1991 18.2242C38.0189 18.4044 37.7749 18.5063 37.52 18.5078H36.679V27.0396C36.7642 28.6582 37.1932 30.2399 37.9376 31.6796L48.7604 50.2396C49.1078 50.8053 49.2943 51.455 49.2998 52.1188C49.3014 52.5257 49.2116 52.9277 49.0369 53.2951C48.8622 53.6626 48.6071 53.9861 48.2906 54.2416C47.6543 54.7226 46.8721 54.9703 46.075 54.9434H11.9246C11.1274 54.9703 10.3453 54.7226 9.70898 54.2416C9.39147 53.9869 9.13574 53.6636 8.96096 53.296C8.78618 52.9283 8.69689 52.5259 8.69978 52.1188C8.71152 51.4669 8.89778 50.83 9.23918 50.2744V50.2744ZM35.4378 33.1528C34.4267 31.2683 33.8613 29.1769 33.7848 27.0396V18.5078H24.2148V27.0396C24.1383 29.1769 23.5728 31.2683 22.5618 33.1528L19.3022 38.744H38.6974L35.4378 33.1528ZM11.9246 52.055H46.075C46.1805 52.0577 46.2859 52.046 46.3882 52.0202C46.361 51.9175 46.318 51.8197 46.2606 51.7302L40.3794 41.6324H17.6202L11.739 51.7302C11.6809 51.8221 11.636 51.9217 11.6056 52.026C11.7107 52.0461 11.8176 52.0558 11.9246 52.055Z" fill="#006D92"/>
<path d="M31.9119 10.3141C29.9354 9.84764 28.7112 7.86714 29.1777 5.89059C29.6443 3.91403 31.6248 2.6899 33.6013 3.15641C35.5779 3.62292 36.802 5.60341 36.3355 7.57997C35.869 9.55652 33.8885 10.7807 31.9119 10.3141Z" fill="#006D92"/>
<path d="M23.9185 12.4243C22.5083 12.1954 21.5506 10.8667 21.7796 9.45649C22.0085 8.0463 23.3372 7.08868 24.7474 7.31758C26.1576 7.54649 27.1152 8.87524 26.8863 10.2854C26.6574 11.6956 25.3287 12.6532 23.9185 12.4243Z" fill="#006D92"/>
<path d="M31.5521 33.4254C31.8802 33.4254 32.2009 33.5227 32.4737 33.705C32.7465 33.8872 32.9591 34.1463 33.0847 34.4494C33.2102 34.7525 33.2431 35.0861 33.1791 35.4078C33.1151 35.7296 32.9571 36.0252 32.7251 36.2572C32.4931 36.4892 32.1975 36.6471 31.8758 36.7111C31.554 36.7751 31.2204 36.7423 30.9173 36.6167C30.6142 36.4912 30.3552 36.2786 30.1729 36.0058C29.9906 35.733 29.8933 35.4123 29.8933 35.0842C29.8933 34.6443 30.0681 34.2224 30.3792 33.9113C30.6903 33.6002 31.1122 33.4254 31.5521 33.4254V33.4254Z" fill="#006D92"/>
<path d="M27.8805 31.8013C26.7658 31.8013 25.8621 30.8977 25.8621 29.7829C25.8621 28.6682 26.7658 27.7645 27.8805 27.7645C28.9953 27.7645 29.8989 28.6682 29.8989 29.7829C29.8989 30.8977 28.9953 31.8013 27.8805 31.8013Z" fill="#006D92"/>
<path d="M29.9572 25.0502C29.6596 25.0513 29.3684 24.964 29.1204 24.7994C28.8725 24.6348 28.6791 24.4002 28.5647 24.1255C28.4503 23.8508 28.42 23.5483 28.4778 23.2563C28.5356 22.9644 28.6788 22.6962 28.8892 22.4858C29.0996 22.2753 29.3678 22.1321 29.6598 22.0744C29.9517 22.0166 30.2542 22.0468 30.529 22.1612C30.8037 22.2757 31.0382 22.4691 31.2029 22.717C31.3675 22.9649 31.4547 23.2562 31.4536 23.5538C31.4536 23.9506 31.2959 24.3313 31.0153 24.6119C30.7347 24.8925 30.3541 25.0502 29.9572 25.0502V25.0502Z" fill="#006D92"/>
</svg>
