<svg width="56" height="56" viewBox="0 0 56 56" fill="none" xmlns="http://www.w3.org/2000/svg">
<path d="M4.87189 41.944H9.79989V12.936C9.79989 9.184 12.8799 6.104 16.6319 6.104C16.7999 6.104 16.9679 6.104 17.1359 6.104H44.9679C45.0799 6.104 45.2479 6.104 45.3599 6.104C49.1119 6.104 52.1919 9.184 52.1919 12.936C52.1919 13.552 51.6879 14.056 51.0719 14.056H40.7119V43.064C40.7119 43.232 40.6559 43.344 40.6559 43.456C40.4319 47.04 37.4639 49.896 33.8239 49.896H10.6399C6.88789 49.896 3.80789 46.816 3.80789 43.064C3.75189 42.448 4.25589 41.944 4.87189 41.944ZM49.8399 11.816C49.3359 9.8 47.5439 8.344 45.3599 8.344C45.2479 8.344 45.1919 8.344 45.0799 8.344C45.0239 8.344 45.0239 8.344 44.9679 8.344H44.9119C42.9519 8.512 41.3279 9.968 40.8799 11.816H49.8399ZM29.2319 43.064C29.2319 45.584 31.3039 47.656 33.8239 47.656C36.3439 47.656 38.4159 45.584 38.4159 43.064C38.4159 42.952 38.4159 42.84 38.4719 42.728V12.936C38.4719 11.144 39.1439 9.576 40.2639 8.344H17.1919H17.1359H17.0799C16.9679 8.344 16.7999 8.344 16.6879 8.344C14.1679 8.344 12.0959 10.416 12.0959 12.936V41.944H28.1119C28.7279 41.944 29.2319 42.448 29.2319 43.064ZM10.6399 47.656H28.7839C27.8879 46.704 27.3279 45.472 27.1039 44.184H11.0319H6.15989C6.66389 46.2 8.45589 47.656 10.6399 47.656Z" fill="#006D92"/>
<path d="M29.1194 21.112L28.6714 23.128C28.6154 23.408 28.3914 23.688 28.1114 23.856C27.9434 23.968 27.7194 24.024 27.5514 24.024C27.4394 24.024 27.3274 24.024 27.2154 23.968L25.2554 23.352L23.2954 23.968C23.0154 24.08 22.6794 24.024 22.3994 23.856C22.1194 23.688 21.9514 23.408 21.8394 23.128L21.3914 21.112L19.8794 19.712C19.6554 19.488 19.4874 19.208 19.4874 18.872C19.4874 18.536 19.5994 18.256 19.8794 18.032L21.3914 16.632L21.8394 14.616C21.8954 14.336 22.1194 14.056 22.3994 13.888C22.6794 13.72 23.0154 13.72 23.2954 13.776L25.2554 14.392L27.2154 13.776C27.4954 13.664 27.8314 13.72 28.1114 13.888C28.3914 14.056 28.5594 14.336 28.6714 14.616L29.1194 16.688L30.6314 18.088C30.8554 18.312 31.0234 18.592 31.0234 18.928C31.0234 19.264 30.9114 19.544 30.6314 19.768L29.1194 21.112ZM27.3274 18.088C27.1594 17.92 27.0474 17.752 26.9914 17.528L26.7114 16.352L25.5914 16.688C25.3674 16.744 25.1434 16.744 24.9194 16.688L23.7994 16.352L23.5194 17.528C23.4634 17.752 23.3514 17.976 23.1834 18.088L22.2874 18.872L23.1834 19.656C23.3514 19.824 23.4634 19.992 23.5194 20.216L23.7994 21.392L24.9194 21.056C25.1434 21 25.3674 21 25.5914 21.056L26.7114 21.392L26.9914 20.216C27.0474 19.992 27.1594 19.768 27.3274 19.656L28.2234 18.872L27.3274 18.088Z" fill="#006D92"/>
<path d="M33.2638 28.784H17.2478C16.6318 28.784 16.1278 28.28 16.1278 27.664C16.1278 27.048 16.6318 26.544 17.2478 26.544H33.2638C33.8798 26.544 34.3838 27.048 34.3838 27.664C34.3838 28.28 33.8798 28.784 33.2638 28.784Z" fill="#006D92"/>
<path d="M30.2955 30.576C30.9115 30.576 31.4155 31.08 31.4155 31.696C31.4155 32.312 30.9115 32.816 30.2955 32.816H20.3275C19.7115 32.816 19.2075 32.312 19.2075 31.696C19.2075 31.08 19.7115 30.576 20.3275 30.576H30.2955Z" fill="#006D92"/>
<path d="M15.7919 35.504C15.7919 34.888 16.2959 34.384 16.9119 34.384H33.6559C34.2719 34.384 34.7759 34.888 34.7759 35.504C34.7759 36.12 34.2719 36.624 33.6559 36.624H16.9679C16.2959 36.624 15.7919 36.12 15.7919 35.504Z" fill="#006D92"/>
</svg>
