<svg width="56" height="56" viewBox="0 0 56 56" fill="none" xmlns="http://www.w3.org/2000/svg">
<path d="M28.0001 5.03998C23.3591 5.03998 19.1405 5.9856 15.9951 7.61251C12.8498 9.23937 10.6401 11.6553 10.6401 14.56V41.44C10.6401 44.3447 12.8498 46.7431 15.9951 48.37C19.1405 49.9969 23.3591 50.96 28.0001 50.96C32.6412 50.96 36.8598 49.9969 40.0051 48.37C43.1505 46.7431 45.3601 44.3447 45.3601 41.44V14.56C45.3601 11.6553 43.1505 9.23937 40.0051 7.61251C36.8598 5.9856 32.6412 5.03998 28.0001 5.03998ZM28.0001 7.27998C32.3282 7.27998 36.2402 8.19417 38.9727 9.60744C41.705 11.0208 43.1201 12.8255 43.1201 14.56C43.1201 16.2945 41.705 18.0817 38.9727 19.495C36.2402 20.9083 32.3282 21.84 28.0001 21.84C23.6721 21.84 19.7601 20.9083 17.0276 19.495C14.2953 18.0817 12.8801 16.2945 12.8801 14.56C12.8801 12.8255 14.2953 11.0208 17.0276 9.60744C19.7601 8.19417 23.6721 7.27998 28.0001 7.27998ZM12.8801 19.32C13.7356 20.1473 14.7989 20.8712 15.9951 21.49C19.1405 23.1169 23.3591 24.08 28.0001 24.08C32.6412 24.08 36.8598 23.1169 40.0051 21.49C41.2014 20.8712 42.2647 20.1473 43.1201 19.32V23.52C43.1201 25.2545 41.7049 27.0417 38.9727 28.455C36.2401 29.8683 32.3282 30.8 28.0001 30.8C23.6721 30.8 19.7601 29.8683 17.0276 28.455C14.2954 27.0417 12.8801 25.2545 12.8801 23.52V19.32V19.32ZM12.8801 28.28C13.7367 29.1059 14.8004 29.832 15.9951 30.45C19.1405 32.0769 23.3591 33.04 28.0001 33.04C32.6412 33.04 36.8598 32.0769 40.0051 30.45C41.1998 29.832 42.2636 29.1059 43.1201 28.28V32.48C43.1201 34.2145 41.7049 36.0017 38.9727 37.415C36.2401 38.8283 32.3282 39.76 28.0001 39.76C23.6721 39.76 19.7601 38.8283 17.0276 37.415C14.2954 36.0017 12.8801 34.2145 12.8801 32.48V28.28V28.28ZM12.8801 37.24C13.7367 38.0659 14.8004 38.792 15.9951 39.41C19.1405 41.0369 23.3591 42 28.0001 42C32.6412 42 36.8598 41.0369 40.0051 39.41C41.1998 38.792 42.2636 38.0659 43.1201 37.24V41.44C43.1201 43.1745 41.705 44.9617 38.9727 46.375C36.2402 47.7883 32.3282 48.72 28.0001 48.72C23.6721 48.72 19.7601 47.7883 17.0276 46.375C14.2953 44.9617 12.8801 43.1745 12.8801 41.44V37.24V37.24Z" fill="#006D92"/>
</svg>
