<svg width="42" height="42" viewBox="0 0 42 42" fill="none" xmlns="http://www.w3.org/2000/svg">
<path d="M23.4404 30.0302V14.3892C23.4404 13.2092 22.4804 12.2493 21.301 12.2493H19.2566C18.0767 12.2493 17.1167 13.2092 17.1167 14.3892V30.0302C17.1167 31.2101 18.0767 32.1695 19.2566 32.1695H21.301C22.4804 32.1695 23.4404 31.2101 23.4404 30.0302ZM21.301 30.6258H19.2566C18.9282 30.6258 18.661 30.3586 18.661 30.0302V14.3892C18.661 14.0608 18.9282 13.7936 19.2566 13.7936H21.301C21.6294 13.7936 21.8966 14.0608 21.8966 14.3892V30.0302C21.8966 30.3586 21.6289 30.6258 21.301 30.6258Z" fill="#006D92"/>
<path d="M15.2353 30.0739V6.13991C15.2353 4.95996 14.2754 4 13.0959 4H11.0515C9.87158 4 8.91162 4.95996 8.91162 6.13991V30.0744C8.91162 31.2544 9.87158 32.2138 11.0515 32.2138H13.0959C14.2754 32.2132 15.2353 31.2538 15.2353 30.0739ZM13.0954 30.6695H11.051C10.7226 30.6695 10.4554 30.4023 10.4554 30.0739V6.13991C10.4554 5.81152 10.7226 5.5443 11.051 5.5443H13.0954C13.4238 5.5443 13.691 5.81152 13.691 6.13991V30.0744C13.691 30.4023 13.4238 30.6695 13.0954 30.6695Z" fill="#006D92"/>
<path d="M31.646 30.0299V21.9913C31.646 20.8114 30.686 19.8514 29.5066 19.8514H27.4622C26.2822 19.8514 25.3223 20.8114 25.3223 21.9913V30.0299C25.3223 31.2099 26.2822 32.1693 27.4622 32.1693H29.5066C30.686 32.1693 31.646 31.2099 31.646 30.0299ZM29.5066 30.6256H27.4622C27.1338 30.6256 26.8666 30.3583 26.8666 30.0299V21.9913C26.8666 21.6629 27.1338 21.3957 27.4622 21.3957H29.5066C29.835 21.3957 30.1022 21.6629 30.1022 21.9913V30.0299C30.1022 30.3583 29.835 30.6256 29.5066 30.6256Z" fill="#006D92"/>
<path d="M36.7742 34.3144L35.4059 32.9461C35.1038 32.6451 34.615 32.6456 34.314 32.9466C34.168 33.0926 34.0881 33.2863 34.0881 33.4929C34.0881 33.6989 34.1686 33.8932 34.314 34.0386L34.3639 34.0885H7.50714C7.17874 34.0885 6.91152 33.8213 6.91152 33.4929V6.63558L6.96089 6.68495C7.25226 6.97632 7.76148 6.97632 8.05285 6.68549C8.1988 6.53953 8.27875 6.34583 8.27875 6.13924C8.27875 5.93265 8.19826 5.73895 8.05285 5.59299L6.68508 4.22577C6.38406 3.92474 5.89415 3.92474 5.59313 4.22577L4.22537 5.59353C3.92488 5.89402 3.92488 6.38392 4.22537 6.68495C4.52639 6.98598 5.0163 6.98598 5.31732 6.68495L5.36669 6.63558V33.4929C5.36669 34.6728 6.32664 35.6328 7.5066 35.6328H34.3639L34.3145 35.6821C34.168 35.8281 34.0875 36.0218 34.0875 36.2284C34.0875 36.4344 34.168 36.6287 34.3134 36.7736C34.4594 36.9195 34.6531 37 34.8597 37C35.0657 37 35.26 36.9195 35.4065 36.7741L36.7732 35.4063C36.9196 35.2604 37.0001 35.0667 37.0001 34.8606C37.0001 34.6546 36.9196 34.4598 36.7742 34.3144Z" fill="#006D92"/>
</svg>
